<svg width="375" height="354" viewBox="0 0 375 354" fill="none" xmlns="http://www.w3.org/2000/svg">
<path d="M154.255 99.1612C254.549 10.6146 333.672 -0.510897 360.697 4.99469L419.159 216.891L259.628 402.793L-140.642 398.832C-156.603 364.311 -172.133 275.554 -106.561 196.689C-24.5964 98.1075 28.8875 209.844 154.255 99.1612Z" fill="#0E102E"/>
<path d="M76.2644 54.2442L115.177 30.8789L154.089 54.2442V339.186H76.2644V54.2442Z" fill="url(#paint0_linear_192_8536)"/>
<path fill-rule="evenodd" clip-rule="evenodd" d="M115.177 339.183H76.2644V54.2425L76.265 54.2422L115.177 77.6074V339.183Z" fill="url(#paint1_linear_192_8536)"/>
<path fill-rule="evenodd" clip-rule="evenodd" d="M154.089 54.2422V339.183H115.177V77.6074L154.089 54.2422L154.089 54.2422Z" fill="url(#paint2_linear_192_8536)"/>
<path d="M236 32.3535L254.099 23L272.198 32.3535V146.42H236V32.3535Z" fill="url(#paint3_linear_192_8536)"/>
<path fill-rule="evenodd" clip-rule="evenodd" d="M254.099 146.42H236V32.3535L254.099 41.7068V146.42Z" fill="url(#paint4_linear_192_8536)"/>
<path fill-rule="evenodd" clip-rule="evenodd" d="M272.199 32.3538V146.42H254.1V41.707L272.199 32.3535L272.199 32.3538Z" fill="url(#paint5_linear_192_8536)"/>
<path d="M203.999 62.3145L217.745 54.1406L231.492 62.3145V161.996H203.999V62.3145Z" fill="url(#paint6_linear_192_8536)"/>
<path fill-rule="evenodd" clip-rule="evenodd" d="M203.999 62.3164L203.999 62.3168V161.998H217.745V70.49L203.999 62.3164Z" fill="url(#paint7_linear_192_8536)"/>
<path fill-rule="evenodd" clip-rule="evenodd" d="M231.492 62.3165V161.998H217.746V70.4903L231.492 62.3164L231.492 62.3165Z" fill="url(#paint8_linear_192_8536)"/>
<path d="M25.509 100.42L41.3701 90.5156L57.2311 100.42V221.211H25.509V100.42Z" fill="url(#paint9_linear_192_8536)"/>
<path fill-rule="evenodd" clip-rule="evenodd" d="M41.3704 221.212H25.5093V100.422L25.5093 100.422L41.3704 110.327V221.212Z" fill="url(#paint10_linear_192_8536)"/>
<path fill-rule="evenodd" clip-rule="evenodd" d="M57.2316 100.422V221.212H41.3706V110.327L57.2316 100.422Z" fill="url(#paint11_linear_192_8536)"/>
<path d="M-39.0002 96.9612L-10.8584 76L17.2834 96.9612V352.585H-39.0002V96.9612Z" fill="url(#paint12_linear_192_8536)"/>
<path fill-rule="evenodd" clip-rule="evenodd" d="M17.2827 96.9629V352.586H-10.8584V117.924L17.2827 96.9629Z" fill="url(#paint13_linear_192_8536)"/>
<path d="M168.47 114.22L194.693 101.936L220.917 114.22V264.032H168.47V114.22Z" fill="url(#paint14_linear_192_8536)"/>
<path fill-rule="evenodd" clip-rule="evenodd" d="M194.693 264.032H168.469V114.221L168.47 114.221L194.693 126.505V264.032Z" fill="url(#paint15_linear_192_8536)"/>
<path fill-rule="evenodd" clip-rule="evenodd" d="M220.917 114.221V264.032H194.693V126.505L220.917 114.221L220.917 114.221Z" fill="url(#paint16_linear_192_8536)"/>
<path d="M235.721 167.387L252.851 158.188L269.981 167.387V279.578H235.721V167.387Z" fill="url(#paint17_linear_192_8536)"/>
<path fill-rule="evenodd" clip-rule="evenodd" d="M252.851 301.976H235.721V167.389L235.721 167.389L252.851 178.425V301.976Z" fill="url(#paint18_linear_192_8536)"/>
<path fill-rule="evenodd" clip-rule="evenodd" d="M269.981 167.389V301.976H252.851V178.425L269.981 167.389L269.981 167.389Z" fill="url(#paint19_linear_192_8536)"/>
<defs>
<linearGradient id="paint0_linear_192_8536" x1="115.177" y1="30.8789" x2="115.177" y2="339.186" gradientUnits="userSpaceOnUse">
<stop stop-color="#F1602C"/>
<stop offset="1" stop-color="#0E102E"/>
</linearGradient>
<linearGradient id="paint1_linear_192_8536" x1="76.2644" y1="54.2422" x2="76.2644" y2="362.548" gradientUnits="userSpaceOnUse">
<stop stop-color="#FD6922"/>
<stop offset="0.64375" stop-color="#9602BB"/>
<stop offset="1" stop-color="#0E102E"/>
</linearGradient>
<linearGradient id="paint2_linear_192_8536" x1="208.242" y1="14.0655" x2="208.242" y2="322.372" gradientUnits="userSpaceOnUse">
<stop stop-color="#F6742B"/>
<stop offset="0.586458" stop-color="#661B80"/>
<stop offset="1" stop-color="#0E102E"/>
</linearGradient>
<linearGradient id="paint3_linear_192_8536" x1="254.099" y1="23" x2="254.099" y2="146.42" gradientUnits="userSpaceOnUse">
<stop stop-color="#F1602C"/>
<stop offset="1" stop-color="#0E102E"/>
</linearGradient>
<linearGradient id="paint4_linear_192_8536" x1="236" y1="32.3535" x2="236" y2="155.774" gradientUnits="userSpaceOnUse">
<stop stop-color="#FD6922"/>
<stop offset="0.484" stop-color="#56076A"/>
<stop offset="0.879" stop-color="#0E102E"/>
</linearGradient>
<linearGradient id="paint5_linear_192_8536" x1="297.388" y1="16.2701" x2="297.388" y2="139.69" gradientUnits="userSpaceOnUse">
<stop stop-color="#F6742B"/>
<stop offset="0.586458" stop-color="#661B80"/>
<stop offset="1" stop-color="#0E102E"/>
</linearGradient>
<linearGradient id="paint6_linear_192_8536" x1="217.745" y1="54.1406" x2="217.745" y2="161.996" gradientUnits="userSpaceOnUse">
<stop stop-color="#F1602C"/>
<stop offset="0.253125" stop-color="#0E102E"/>
</linearGradient>
<linearGradient id="paint7_linear_192_8536" x1="203.999" y1="62.3164" x2="203.999" y2="170.172" gradientUnits="userSpaceOnUse">
<stop stop-color="#FD6922"/>
<stop offset="0.180208" stop-color="#9602BB"/>
<stop offset="0.45625" stop-color="#0E102E"/>
</linearGradient>
<linearGradient id="paint8_linear_192_8536" x1="250.622" y1="48.2614" x2="250.622" y2="156.116" gradientUnits="userSpaceOnUse">
<stop stop-color="#F6742B"/>
<stop offset="0.211458" stop-color="#661B80"/>
<stop offset="0.51875" stop-color="#0E102E"/>
</linearGradient>
<linearGradient id="paint9_linear_192_8536" x1="41.3701" y1="90.5156" x2="41.3701" y2="221.211" gradientUnits="userSpaceOnUse">
<stop stop-color="#F1602C"/>
<stop offset="1" stop-color="#0E102E"/>
</linearGradient>
<linearGradient id="paint10_linear_192_8536" x1="25.5093" y1="100.422" x2="25.5093" y2="231.116" gradientUnits="userSpaceOnUse">
<stop stop-color="#FD6922"/>
<stop offset="0.289583" stop-color="#9402B8"/>
<stop offset="0.560417" stop-color="#4B085C"/>
<stop offset="0.859" stop-color="#0E102E"/>
</linearGradient>
<linearGradient id="paint11_linear_192_8536" x1="79.3046" y1="83.3905" x2="79.3046" y2="214.085" gradientUnits="userSpaceOnUse">
<stop stop-color="#F6742B"/>
<stop offset="0.0001" stop-color="#550A6F"/>
<stop offset="0.659375" stop-color="#0E102E"/>
<stop offset="1" stop-color="#0E102E"/>
</linearGradient>
<linearGradient id="paint12_linear_192_8536" x1="-10.8584" y1="76" x2="-10.8584" y2="352.585" gradientUnits="userSpaceOnUse">
<stop stop-color="#F1602C"/>
<stop offset="1" stop-color="#0E102E"/>
</linearGradient>
<linearGradient id="paint13_linear_192_8536" x1="56.4457" y1="60.92" x2="56.4457" y2="337.504" gradientUnits="userSpaceOnUse">
<stop stop-color="#F6742B"/>
<stop offset="0.586458" stop-color="#661B80"/>
<stop offset="1" stop-color="#0E102E"/>
</linearGradient>
<linearGradient id="paint14_linear_192_8536" x1="194.693" y1="101.936" x2="194.693" y2="264.032" gradientUnits="userSpaceOnUse">
<stop stop-color="#F1602C"/>
<stop offset="1" stop-color="#0E102E"/>
</linearGradient>
<linearGradient id="paint15_linear_192_8536" x1="168.469" y1="114.221" x2="168.469" y2="276.316" gradientUnits="userSpaceOnUse">
<stop stop-color="#FD6922"/>
<stop offset="0.64375" stop-color="#0E102E"/>
<stop offset="1" stop-color="#0E102E"/>
</linearGradient>
<linearGradient id="paint16_linear_192_8536" x1="257.412" y1="93.0973" x2="257.412" y2="255.193" gradientUnits="userSpaceOnUse">
<stop stop-color="#F6742B"/>
<stop offset="0.586458" stop-color="#661B80"/>
<stop offset="1" stop-color="#0E102E"/>
</linearGradient>
<linearGradient id="paint17_linear_192_8536" x1="252.851" y1="158.188" x2="252.851" y2="279.578" gradientUnits="userSpaceOnUse">
<stop stop-color="#0E102E"/>
<stop offset="0.0001" stop-color="#50135F"/>
<stop offset="0.107292" stop-color="#0E102E"/>
</linearGradient>
<linearGradient id="paint18_linear_192_8536" x1="235.721" y1="167.389" x2="235.721" y2="313.013" gradientUnits="userSpaceOnUse">
<stop stop-color="#FD6922"/>
<stop offset="0.0001" stop-color="#9602BB"/>
<stop offset="0.227183" stop-color="#7D019C"/>
<stop offset="0.414583" stop-color="#500064"/>
<stop offset="0.721875" stop-color="#0E102E"/>
</linearGradient>
<linearGradient id="paint19_linear_192_8536" x1="293.82" y1="148.412" x2="293.82" y2="294.036" gradientUnits="userSpaceOnUse">
<stop stop-color="#F6742B"/>
<stop offset="0.0001" stop-color="#440858"/>
<stop offset="0.128125" stop-color="#30053C"/>
<stop offset="0.190625" stop-color="#26032F"/>
<stop offset="0.357292" stop-color="#26032F"/>
</linearGradient>
</defs>
</svg>
