<svg width="1636" height="1162" viewBox="0 0 1636 1162" fill="none" xmlns="http://www.w3.org/2000/svg">
<path d="M887.876 269.033C1159.98 28.7971 1374.65 -1.38751 1447.97 13.5497L1606.59 588.445L1173.76 1092.82L87.7912 1082.07C44.4864 988.412 2.3525 747.605 180.255 533.636C402.634 266.174 547.741 569.328 887.876 269.033Z" fill="#0E102E"/>
<path d="M676.278 147.163L781.852 83.7703L887.425 147.163V920.239H676.278V147.163Z" fill="url(#paint0_linear_713_1774)"/>
<path fill-rule="evenodd" clip-rule="evenodd" d="M781.852 920.239H676.278V147.163L781.852 210.555V920.239Z" fill="url(#paint1_linear_713_1774)"/>
<path fill-rule="evenodd" clip-rule="evenodd" d="M887.425 147.163V920.239H781.852V210.555L887.425 147.163L887.425 147.163Z" fill="url(#paint2_linear_713_1774)"/>
<path d="M1141.03 78.1832L1201.28 47.0491L1261.52 78.1832V457.868H1141.03V78.1832Z" fill="url(#paint3_linear_713_1774)"/>
<path fill-rule="evenodd" clip-rule="evenodd" d="M1201.28 457.868H1141.03V78.1833L1201.28 109.317V457.868Z" fill="url(#paint4_linear_713_1774)"/>
<path fill-rule="evenodd" clip-rule="evenodd" d="M1261.52 78.1833V457.868H1201.28V109.317L1261.52 78.1833Z" fill="url(#paint5_linear_713_1774)"/>
<path d="M1022.83 169.062L1060.13 146.885L1097.42 169.062V439.507H1022.83V169.062Z" fill="url(#paint6_linear_713_1774)"/>
<path fill-rule="evenodd" clip-rule="evenodd" d="M1060.13 439.507H1022.83V169.062L1022.83 169.062L1060.13 191.238V439.507Z" fill="url(#paint7_linear_713_1774)"/>
<path fill-rule="evenodd" clip-rule="evenodd" d="M1097.42 169.062V439.507H1060.13V191.238L1097.42 169.062L1097.42 169.062Z" fill="url(#paint8_linear_713_1774)"/>
<path d="M538.574 272.446L581.607 245.573L624.639 272.446V600.163H538.574V272.446Z" fill="url(#paint9_linear_713_1774)"/>
<path fill-rule="evenodd" clip-rule="evenodd" d="M581.607 600.162H538.574V272.446L581.607 299.319V600.162Z" fill="url(#paint10_linear_713_1774)"/>
<path fill-rule="evenodd" clip-rule="evenodd" d="M624.639 272.446V600.163H581.606V299.319L624.639 272.446L624.639 272.446Z" fill="url(#paint11_linear_713_1774)"/>
<path d="M323.984 302.443L400.336 245.573L476.687 302.443V995.977H323.984V302.443Z" fill="url(#paint12_linear_713_1774)"/>
<path fill-rule="evenodd" clip-rule="evenodd" d="M400.336 995.977H323.984V302.444L400.336 359.313V995.977Z" fill="url(#paint13_linear_713_1774)"/>
<path fill-rule="evenodd" clip-rule="evenodd" d="M476.688 302.443V995.977H400.336V359.313L476.687 302.443L476.688 302.443Z" fill="url(#paint14_linear_713_1774)"/>
<path d="M926.442 309.886L997.59 276.557L1068.74 309.886V716.341H926.442V309.886Z" fill="url(#paint15_linear_713_1774)"/>
<path fill-rule="evenodd" clip-rule="evenodd" d="M997.59 716.341H926.442V309.886L997.59 343.216V716.341Z" fill="url(#paint16_linear_713_1774)"/>
<path fill-rule="evenodd" clip-rule="evenodd" d="M1068.74 309.886V716.341H997.59V343.216L1068.74 309.886L1068.74 309.886Z" fill="url(#paint17_linear_713_1774)"/>
<path d="M1108.9 454.139L1155.38 429.179L1201.85 454.139V758.523H1108.9V454.139Z" fill="url(#paint18_linear_713_1774)"/>
<path fill-rule="evenodd" clip-rule="evenodd" d="M1155.38 758.523H1108.9V454.139L1155.38 479.098V758.523Z" fill="url(#paint19_linear_713_1774)"/>
<path fill-rule="evenodd" clip-rule="evenodd" d="M1201.85 454.139V758.523H1155.38V479.098L1201.85 454.139L1201.85 454.139Z" fill="url(#paint20_linear_713_1774)"/>
<defs>
<linearGradient id="paint0_linear_713_1774" x1="781.852" y1="83.7703" x2="781.852" y2="920.239" gradientUnits="userSpaceOnUse">
<stop stop-color="#F1602C"/>
<stop offset="1" stop-color="#0E102E"/>
</linearGradient>
<linearGradient id="paint1_linear_713_1774" x1="676.278" y1="147.163" x2="676.278" y2="983.632" gradientUnits="userSpaceOnUse">
<stop stop-color="#FD6922"/>
<stop offset="0.64375" stop-color="#9602BB"/>
<stop offset="1" stop-color="#0E102E"/>
</linearGradient>
<linearGradient id="paint2_linear_713_1774" x1="1034.35" y1="38.1588" x2="1034.35" y2="874.628" gradientUnits="userSpaceOnUse">
<stop stop-color="#F6742B"/>
<stop offset="0.586458" stop-color="#661B80"/>
<stop offset="1" stop-color="#0E102E"/>
</linearGradient>
<linearGradient id="paint3_linear_713_1774" x1="1201.28" y1="47.0491" x2="1201.28" y2="457.868" gradientUnits="userSpaceOnUse">
<stop stop-color="#F1602C"/>
<stop offset="1" stop-color="#0E102E"/>
</linearGradient>
<linearGradient id="paint4_linear_713_1774" x1="1141.03" y1="78.1833" x2="1141.03" y2="489.002" gradientUnits="userSpaceOnUse">
<stop stop-color="#FD6922"/>
<stop offset="0.64375" stop-color="#9602BB"/>
<stop offset="1" stop-color="#0E102E"/>
</linearGradient>
<linearGradient id="paint5_linear_713_1774" x1="1345.37" y1="24.6478" x2="1345.37" y2="435.467" gradientUnits="userSpaceOnUse">
<stop stop-color="#F6742B"/>
<stop offset="0.586458" stop-color="#661B80"/>
<stop offset="1" stop-color="#0E102E"/>
</linearGradient>
<linearGradient id="paint6_linear_713_1774" x1="1060.13" y1="146.885" x2="1060.13" y2="439.507" gradientUnits="userSpaceOnUse">
<stop stop-color="#F1602C"/>
<stop offset="0.253125" stop-color="#0E102E"/>
</linearGradient>
<linearGradient id="paint7_linear_713_1774" x1="1022.83" y1="169.062" x2="1022.83" y2="461.684" gradientUnits="userSpaceOnUse">
<stop stop-color="#FD6922"/>
<stop offset="0.180208" stop-color="#9602BB"/>
<stop offset="0.45625" stop-color="#0E102E"/>
</linearGradient>
<linearGradient id="paint8_linear_713_1774" x1="1149.33" y1="130.929" x2="1149.33" y2="423.551" gradientUnits="userSpaceOnUse">
<stop stop-color="#F6742B"/>
<stop offset="0.211458" stop-color="#661B80"/>
<stop offset="0.51875" stop-color="#0E102E"/>
</linearGradient>
<linearGradient id="paint9_linear_713_1774" x1="581.607" y1="245.573" x2="581.607" y2="600.163" gradientUnits="userSpaceOnUse">
<stop stop-color="#F1602C"/>
<stop offset="1" stop-color="#0E102E"/>
</linearGradient>
<linearGradient id="paint10_linear_713_1774" x1="538.574" y1="272.446" x2="538.574" y2="627.035" gradientUnits="userSpaceOnUse">
<stop stop-color="#FD6922"/>
<stop offset="0.289583" stop-color="#9402B8"/>
<stop offset="0.560417" stop-color="#4B085C"/>
<stop offset="1" stop-color="#0E102E"/>
</linearGradient>
<linearGradient id="paint11_linear_713_1774" x1="684.526" y1="226.238" x2="684.526" y2="580.827" gradientUnits="userSpaceOnUse">
<stop stop-color="#F6742B"/>
<stop offset="0.0001" stop-color="#550A6F"/>
<stop offset="0.544" stop-color="#3C0D47"/>
<stop offset="1" stop-color="#0E102E"/>
</linearGradient>
<linearGradient id="paint12_linear_713_1774" x1="400.336" y1="245.573" x2="400.336" y2="995.977" gradientUnits="userSpaceOnUse">
<stop stop-color="#F1602C"/>
<stop offset="1" stop-color="#0E102E"/>
</linearGradient>
<linearGradient id="paint13_linear_713_1774" x1="323.984" y1="302.444" x2="323.984" y2="1052.85" gradientUnits="userSpaceOnUse">
<stop stop-color="#FD6922"/>
<stop offset="0.64375" stop-color="#9602BB"/>
<stop offset="1" stop-color="#0E102E"/>
</linearGradient>
<linearGradient id="paint14_linear_713_1774" x1="582.944" y1="204.655" x2="582.944" y2="955.058" gradientUnits="userSpaceOnUse">
<stop stop-color="#F6742B"/>
<stop offset="0.586458" stop-color="#661B80"/>
<stop offset="1" stop-color="#0E102E"/>
</linearGradient>
<linearGradient id="paint15_linear_713_1774" x1="997.59" y1="276.557" x2="997.59" y2="716.341" gradientUnits="userSpaceOnUse">
<stop stop-color="#F1602C"/>
<stop offset="1" stop-color="#0E102E"/>
</linearGradient>
<linearGradient id="paint16_linear_713_1774" x1="926.442" y1="309.886" x2="926.442" y2="749.671" gradientUnits="userSpaceOnUse">
<stop stop-color="#FD6922"/>
<stop offset="0.64375" stop-color="#9602BB"/>
<stop offset="1" stop-color="#0E102E"/>
</linearGradient>
<linearGradient id="paint17_linear_713_1774" x1="1167.75" y1="252.576" x2="1167.75" y2="692.36" gradientUnits="userSpaceOnUse">
<stop stop-color="#F6742B"/>
<stop offset="0.586458" stop-color="#661B80"/>
<stop offset="1" stop-color="#0E102E"/>
</linearGradient>
<linearGradient id="paint18_linear_713_1774" x1="1155.38" y1="429.179" x2="1155.38" y2="758.523" gradientUnits="userSpaceOnUse">
<stop stop-color="#0E102E"/>
<stop offset="0.0001" stop-color="#50135F"/>
<stop offset="0.107292" stop-color="#0E102E"/>
</linearGradient>
<linearGradient id="paint19_linear_713_1774" x1="1108.9" y1="454.139" x2="1108.9" y2="783.483" gradientUnits="userSpaceOnUse">
<stop stop-color="#FD6922"/>
<stop offset="0.0001" stop-color="#9602BB"/>
<stop offset="0.227183" stop-color="#7D019C"/>
<stop offset="0.414583" stop-color="#500064"/>
<stop offset="0.721875" stop-color="#0E102E"/>
</linearGradient>
<linearGradient id="paint20_linear_713_1774" x1="1266.53" y1="411.221" x2="1266.53" y2="740.564" gradientUnits="userSpaceOnUse">
<stop stop-color="#F6742B"/>
<stop offset="0.0001" stop-color="#440858"/>
<stop offset="0.128125" stop-color="#30053C"/>
<stop offset="0.190625" stop-color="#26032F"/>
<stop offset="0.357292" stop-color="#26032F"/>
</linearGradient>
</defs>
</svg>
